<svg xmlns="http://www.w3.org/2000/svg" width="80" height="80" viewBox="0 0 80 80" fill="none">
<g id="entypo-social:linkedin-with-circle" opacity="0.9">
<path id="Vector" d="M39.9996 1.6001C18.7916 1.6001 1.59961 18.7921 1.59961 40.0001C1.59961 61.2081 18.7916 78.4001 39.9996 78.4001C61.2076 78.4001 78.3996 61.2081 78.3996 40.0001C78.3996 18.7921 61.2076 1.6001 39.9996 1.6001ZM30.5996 55.9161H22.8236V30.8921H30.5996V55.9161ZM26.6636 27.8201C24.2076 27.8201 22.6196 26.0801 22.6196 23.9281C22.6196 21.7321 24.2556 20.0441 26.7636 20.0441C29.2716 20.0441 30.8076 21.7321 30.8556 23.9281C30.8556 26.0801 29.2716 27.8201 26.6636 27.8201ZM58.9996 55.9161H51.2236V42.0481C51.2236 38.8201 50.0956 36.6281 47.2836 36.6281C45.1356 36.6281 43.8596 38.1121 43.2956 39.5401C43.0876 40.0481 43.0356 40.7681 43.0356 41.4841V55.9121H35.2556V38.8721C35.2556 35.7481 35.1556 33.1361 35.0516 30.8881H41.8076L42.1636 34.3641H42.3196C43.3436 32.7321 45.8516 30.3241 50.0476 30.3241C55.1636 30.3241 58.9996 33.7521 58.9996 41.1201V55.9161Z" fill="white"/>
</g>
</svg>