<svg xmlns="http://www.w3.org/2000/svg" width="80" height="80" viewBox="0 0 80 80" fill="none">
<g id="entypo-social:youtube-with-circle">
<path id="Vector" d="M46.4116 39.3321L37.4276 35.1401C36.6436 34.7761 35.9996 35.1841 35.9996 36.0521V43.9481C35.9996 44.8161 36.6436 45.2241 37.4276 44.8601L46.4076 40.6681C47.1956 40.3001 47.1956 39.7001 46.4116 39.3321ZM39.9996 1.6001C18.7916 1.6001 1.59961 18.7921 1.59961 40.0001C1.59961 61.2081 18.7916 78.4001 39.9996 78.4001C61.2076 78.4001 78.3996 61.2081 78.3996 40.0001C78.3996 18.7921 61.2076 1.6001 39.9996 1.6001ZM39.9996 55.6001C20.3436 55.6001 19.9996 53.8281 19.9996 40.0001C19.9996 26.1721 20.3436 24.4001 39.9996 24.4001C59.6556 24.4001 59.9996 26.1721 59.9996 40.0001C59.9996 53.8281 59.6556 55.6001 39.9996 55.6001Z" fill="white"/>
</g>
</svg>